<?xml version="1.0" encoding="UTF-8"?>
<!-- Generator: visioncortex VTracer 0.6.3 -->
<svg version="1.1" xmlns="http://www.w3.org/2000/svg" width="1280" height="1280">
<path d="M0 0 C1.16 0.06 1.16 0.06 2.35 0.13 C19.9 1.36 38.28 7.72 50.44 20.81 C51.09 21.43 51.74 22.05 52.41 22.69 C56.39 26.5 59.25 29.68 61.44 34.81 C62.1 35.91 62.76 37 63.44 38.12 C65.43 41.53 66.61 45.02 67.73 48.8 C68.44 51.08 68.44 51.08 70.44 53.81 C70.42 54.55 70.4 55.3 70.38 56.06 C70.46 59.86 71.83 62.39 73.44 65.81 C74.94 63.85 76.33 62.03 77.44 59.81 C78.43 59.81 79.42 59.81 80.44 59.81 C80.11 58.82 79.78 57.83 79.44 56.81 C80.22 56.05 81 55.29 81.81 54.5 C84.16 52.1 85.91 49.98 87.29 46.92 C89.88 42.17 94.38 38.54 98.19 34.75 C99.08 33.84 99.98 32.93 100.9 31.99 C101.77 31.12 102.65 30.24 103.55 29.34 C104.34 28.54 105.13 27.75 105.95 26.93 C108.62 24.65 111.28 23.3 114.44 21.81 C115.46 20.83 116.46 19.83 117.44 18.81 C119.38 17.75 119.38 17.75 121.44 16.81 C122.1 16.46 122.76 16.11 123.44 15.75 C125.44 14.81 125.44 14.81 127.62 14.38 C128.22 14.19 128.82 14 129.44 13.81 C129.77 12.82 130.1 11.83 130.44 10.81 C132.74 10.06 135.08 9.4 137.44 8.81 C139.11 8.17 140.79 7.51 142.44 6.81 C142.44 6.48 142.44 6.15 142.44 5.81 C145.44 5.14 148.44 4.47 151.44 3.81 C152.35 3.61 153.26 3.41 154.19 3.2 C155.08 3.01 155.96 2.82 156.88 2.62 C157.7 2.45 158.52 2.27 159.37 2.08 C161.44 1.81 161.44 1.81 163.44 2.81 C163.44 2.15 163.44 1.49 163.44 0.81 C186.06 -1.22 207.68 1.91 227.44 13.81 C227.44 14.47 227.44 15.13 227.44 15.81 C228.27 16.18 228.27 16.18 229.12 16.56 C236.35 20.47 242.76 27.47 246.44 34.81 C246.77 36.15 247.1 37.48 247.44 38.81 C248.1 39.14 248.76 39.47 249.44 39.81 C249.44 41.46 249.44 43.11 249.44 44.81 C250.1 44.81 250.76 44.81 251.44 44.81 C254.64 52.09 256.65 58.32 257.09 66.32 C257.29 69.06 257.29 69.06 259.44 71.81 C259.69 74.01 259.69 74.01 259.7 76.59 C259.7 77.56 259.71 78.52 259.72 79.52 C259.71 81.09 259.71 81.09 259.7 82.68 C259.71 83.76 259.71 84.83 259.71 85.94 C259.71 88.21 259.71 90.48 259.7 92.75 C259.69 96.23 259.7 99.71 259.71 103.19 C259.71 105.4 259.71 107.6 259.7 109.81 C259.71 110.85 259.71 111.89 259.72 112.97 C259.71 114.42 259.71 114.42 259.7 115.91 C259.69 116.76 259.69 117.61 259.69 118.49 C259.41 121.03 258.61 122.57 257.44 124.81 C257.17 127.4 256.98 129.91 256.88 132.5 C256.56 139.69 256.56 139.69 255.44 140.81 C255.07 142.64 254.74 144.47 254.44 146.31 C253.55 151.7 253.55 151.7 252.44 152.81 C252.28 154.25 252.16 155.69 252.06 157.12 C250.68 172.57 250.68 172.57 247.44 175.81 C247.15 178.62 246.99 181.43 246.82 184.25 C246.44 186.81 246.44 186.81 244.44 188.81 C244.3 191.07 244.44 193.26 244.56 195.52 C244.42 198.14 243.62 199.49 242.44 201.81 C242.03 203.86 241.68 205.93 241.38 208 C240.54 213.71 240.54 213.71 239.44 214.81 C239.23 216.81 239.07 218.81 238.94 220.81 C238.55 226.7 238.55 226.7 237.44 227.81 C237.07 229.3 236.74 230.81 236.44 232.31 C235.55 236.7 235.55 236.7 234.44 237.81 C234.23 239.81 234.07 241.81 233.94 243.81 C233.55 249.7 233.55 249.7 232.44 250.81 C232.07 252.62 231.74 254.43 231.44 256.25 C230.55 261.6 230.55 261.6 229.44 263.81 C229.13 266.4 228.93 269 228.72 271.6 C228.44 273.81 228.44 273.81 227.44 274.81 C227.07 276.97 226.74 279.14 226.44 281.31 C225.55 287.7 225.55 287.7 224.44 288.81 C224.21 290.81 223.99 292.8 223.82 294.8 C223.44 296.81 223.44 296.81 221.44 299.81 C221.44 301.8 221.44 303.79 221.56 305.78 C221.41 308.22 220.53 309.63 219.44 311.81 C219.03 313.86 218.68 315.93 218.38 318 C217.54 323.71 217.54 323.71 216.44 324.81 C216.11 327.45 215.78 330.09 215.44 332.81 C186.07 332.81 156.7 332.81 126.44 332.81 C124.47 328.88 126.13 323.8 127.38 319.75 C127.73 318.78 128.08 317.81 128.44 316.81 C130.06 311.85 130.72 307.25 131.16 302.09 C131.49 299.42 132.42 297.29 133.44 294.81 C133.9 291.82 134.19 288.83 134.44 285.81 C135.1 285.81 135.76 285.81 136.44 285.81 C136.11 284.82 135.78 283.83 135.44 282.81 C135.74 280.73 135.74 280.73 136.31 278.44 C136.5 277.64 136.7 276.84 136.89 276.02 C137.07 275.29 137.25 274.56 137.44 273.81 C138.29 269.83 138.88 265.84 139.44 261.81 C140.1 261.81 140.76 261.81 141.44 261.81 C141.44 257.85 141.44 253.89 141.44 249.81 C142.1 249.48 142.76 249.15 143.44 248.81 C143.91 246.23 143.91 246.23 144.06 243.25 C144.14 242.24 144.21 241.23 144.29 240.18 C144.34 239.4 144.39 238.62 144.44 237.81 C145.1 237.81 145.76 237.81 146.44 237.81 C146.38 235.99 146.38 235.99 146.31 234.12 C146.31 230.5 147.08 228.18 148.44 224.81 C148.64 223.15 148.8 221.48 148.94 219.81 C149.24 216.07 149.99 213.28 151.44 209.81 C151.44 208.82 151.44 207.83 151.44 206.81 C151.44 203.55 152.23 201.8 153.44 198.81 C153.69 196.81 153.95 194.8 154.16 192.79 C154.55 190.01 155.55 187.47 156.44 184.81 C156.87 182.15 157.16 179.5 157.44 176.81 C158.1 176.81 158.76 176.81 159.44 176.81 C159.41 176.23 159.39 175.65 159.37 175.05 C159.25 170.12 159.78 166.5 161.44 161.81 C161.89 158.82 162.18 155.83 162.44 152.81 C163.1 152.81 163.76 152.81 164.44 152.81 C164.11 151.82 163.78 150.83 163.44 149.81 C163.96 147.72 163.96 147.72 164.81 145.31 C166.36 140.54 166.93 136.06 167.23 131.06 C167.44 128.81 167.44 128.81 168.44 126.81 C168.89 121.87 169.12 116.92 169.34 111.96 C169.42 110.12 169.53 108.28 169.64 106.44 C169.96 97.92 168.42 89.21 163.06 82.31 C153.45 73.16 142.08 74.61 129.44 74.81 C129.44 75.47 129.44 76.13 129.44 76.81 C122.81 79.81 122.81 79.81 119.44 79.81 C119.18 80.43 118.93 81.04 118.66 81.67 C117.27 84.11 116.26 84.76 113.81 86.06 C107.25 89.94 102.14 95.15 98.44 101.81 C97.76 102.47 97.08 103.13 96.38 103.81 C94.24 106.02 93.4 107.92 92.44 110.81 C91.78 110.81 91.12 110.81 90.44 110.81 C90.36 111.68 90.27 112.54 90.19 113.44 C89.32 117.36 87.7 119.51 85.44 122.81 C82.37 128.96 79.94 135.42 77.44 141.81 C76.78 141.81 76.12 141.81 75.44 141.81 C75.5 143.2 75.5 143.2 75.56 144.62 C75.44 147.81 75.44 147.81 73.44 150.81 C72.72 153.13 72.06 155.47 71.44 157.81 C69.58 164.67 69.58 164.67 68.44 165.81 C67.96 167.9 67.49 169.99 67.04 172.08 C66.17 176.03 65.16 179.94 64.16 183.86 C63.5 186.57 62.89 189.28 62.31 192 C61.44 195.81 61.44 195.81 60.44 196.81 C60.23 198.64 60.07 200.48 59.94 202.31 C59.55 207.7 59.55 207.7 58.44 208.81 C58.07 210.78 57.74 212.77 57.44 214.75 C56.55 220.6 56.55 220.6 55.44 222.81 C55.17 225.05 54.99 227.28 54.82 229.52 C54.44 231.81 54.44 231.81 53.44 233.75 C52.17 236.37 52.06 238.6 51.88 241.5 C51.54 246.71 51.54 246.71 50.44 247.81 C50.21 249.81 49.99 251.8 49.82 253.8 C49.44 255.81 49.44 255.81 47.44 258.81 C47.02 261.52 47.02 261.52 46.88 264.44 C46.54 269.71 46.54 269.71 45.44 270.81 C45.15 273.33 44.99 275.84 44.82 278.37 C44.44 280.81 44.44 280.81 42.44 283.81 C42.02 286.75 42.02 286.75 41.88 289.94 C41.54 295.71 41.54 295.71 40.44 296.81 C40.07 298.81 39.74 300.81 39.44 302.81 C38.55 308.7 38.55 308.7 37.44 309.81 C37.23 311.29 37.07 312.77 36.94 314.25 C36.55 318.59 36.55 318.59 35.44 320.81 C35.17 323.08 34.99 325.35 34.82 327.62 C34.44 329.81 34.44 329.81 32.44 332.81 C29.57 333.1 26.91 333.19 24.04 333.15 C23.17 333.15 22.3 333.15 21.41 333.15 C18.53 333.15 15.65 333.13 12.77 333.11 C10.78 333.1 8.79 333.1 6.8 333.09 C1.54 333.08 -3.71 333.05 -8.96 333.02 C-14.31 332.99 -19.67 332.97 -25.02 332.96 C-35.54 332.93 -46.05 332.88 -56.56 332.81 C-56.42 331.04 -56.27 329.28 -56.12 327.51 C-56 326.03 -56 326.03 -55.88 324.52 C-55.52 321.42 -54.59 318.76 -53.56 315.81 C-53.12 312.82 -52.82 309.83 -52.56 306.81 C-51.9 306.81 -51.24 306.81 -50.56 306.81 C-50.75 306.3 -50.93 305.78 -51.12 305.25 C-51.72 301.95 -51.13 299.09 -50.56 295.81 C-49.9 295.81 -49.24 295.81 -48.56 295.81 C-48.49 294.51 -48.49 294.51 -48.41 293.18 C-48.34 292.03 -48.26 290.87 -48.19 289.69 C-48.12 288.55 -48.05 287.41 -47.98 286.24 C-47.57 282.84 -46.71 280.03 -45.56 276.81 C-44.43 272.09 -43.58 267.33 -43.06 262.5 C-42.61 259.18 -41.82 256.87 -40.56 253.81 C-40.19 251.49 -39.85 249.15 -39.56 246.81 C-39.23 245.15 -38.9 243.48 -38.56 241.81 C-38.35 240.02 -38.35 240.02 -38.12 238.19 C-37.56 234.81 -37.56 234.81 -35.56 231.81 C-35.14 229.14 -35.14 229.14 -35 226.25 C-34.66 221 -34.66 221 -33.56 218.81 C-33.34 217.28 -33.15 215.73 -33 214.19 C-32.92 213.37 -32.83 212.55 -32.75 211.71 C-32.69 211.08 -32.62 210.46 -32.56 209.81 C-31.9 209.81 -31.24 209.81 -30.56 209.81 C-30.23 205.52 -29.9 201.23 -29.56 196.81 C-28.9 196.81 -28.24 196.81 -27.56 196.81 C-27.6 195.84 -27.64 194.87 -27.69 193.88 C-27.7 190.09 -26.96 186.68 -26.07 183.01 C-25.48 180.59 -25.48 180.59 -25.06 177.19 C-24.53 173.6 -23.57 170.3 -22.56 166.81 C-21.55 162.25 -20.68 157.7 -20.06 153.06 C-19.56 149.78 -18.65 146.95 -17.56 143.81 C-16 138.39 -15.28 133.3 -14.85 127.68 C-14.47 123.93 -13.75 120.29 -12.96 116.61 C-11.5 106.42 -12.78 93.52 -18.25 84.62 C-22.13 79.66 -26.17 76.47 -32.43 75.26 C-41.67 74.29 -49.28 74.77 -57.62 78.97 C-59.56 79.81 -59.56 79.81 -62.56 79.81 C-62.56 80.47 -62.56 81.13 -62.56 81.81 C-63.24 82.01 -63.92 82.2 -64.62 82.4 C-68.71 84.36 -71.41 87.23 -74.56 90.44 C-75.17 91.03 -75.77 91.62 -76.39 92.23 C-80.1 95.97 -82.95 99.72 -85.52 104.32 C-85.86 104.81 -86.21 105.31 -86.56 105.81 C-87.22 105.81 -87.88 105.81 -88.56 105.81 C-88.72 106.96 -88.72 106.96 -88.88 108.12 C-89.64 111.1 -90.41 111.75 -92.56 113.81 C-93.25 115.47 -93.92 117.14 -94.56 118.81 C-95.23 120.03 -95.92 121.24 -96.62 122.44 C-98.62 125.65 -98.62 125.65 -99.56 128.81 C-100.22 128.81 -100.88 128.81 -101.56 128.81 C-101.56 130.46 -101.56 132.11 -101.56 133.81 C-102.22 133.81 -102.88 133.81 -103.56 133.81 C-103.64 134.95 -103.73 136.08 -103.81 137.25 C-104.42 142.24 -106.39 146.33 -108.56 150.81 C-109.94 153.87 -110.78 156.73 -111.44 160 C-112.16 163.49 -113.23 166.59 -114.62 169.88 C-116.48 174.26 -117.13 178.09 -117.56 182.81 C-117.89 183.14 -118.22 183.47 -118.56 183.81 C-119.71 188.01 -120.49 192.26 -121.06 196.56 C-121.56 199.81 -121.56 199.81 -122.56 202.19 C-123.77 205.35 -123.99 208.27 -124.22 211.63 C-124.56 213.81 -124.56 213.81 -125.56 215.73 C-126.83 218.36 -126.94 220.6 -127.12 223.5 C-127.46 228.71 -127.46 228.71 -128.56 229.81 C-128.93 231.81 -129.26 233.81 -129.56 235.81 C-130.45 241.7 -130.45 241.7 -131.56 242.81 C-131.79 244.33 -131.97 245.85 -132.12 247.38 C-132.25 248.61 -132.25 248.61 -132.38 249.88 C-132.44 250.52 -132.5 251.16 -132.56 251.81 C-133.22 251.81 -133.88 251.81 -134.56 251.81 C-134.54 252.49 -134.52 253.16 -134.49 253.86 C-134.47 254.75 -134.46 255.64 -134.44 256.56 C-134.41 257.44 -134.39 258.33 -134.37 259.23 C-134.58 261.98 -135.32 263.4 -136.56 265.81 C-136.94 268.26 -136.94 268.26 -137.06 270.81 C-137.28 274.39 -137.93 276.65 -139.56 279.81 C-139.56 280.82 -139.56 281.83 -139.56 282.88 C-139.56 285.81 -139.56 285.81 -141.56 288.81 C-141.95 291.22 -141.95 291.22 -142.06 293.81 C-142.28 297.48 -142.45 298.65 -144.56 301.81 C-144.98 304.75 -144.98 304.75 -145.12 307.94 C-145.46 313.71 -145.46 313.71 -146.56 314.81 C-147.11 317.74 -147.53 320.69 -147.96 323.64 C-148.56 326.81 -148.56 326.81 -150.56 332.81 C-179.6 332.81 -208.64 332.81 -238.56 332.81 C-240.5 328.94 -239.66 324.84 -238.56 320.81 C-238.42 319.62 -238.27 318.42 -238.12 317.19 C-237.56 313.81 -237.56 313.81 -235.56 311.81 C-235.17 309.32 -235.17 309.32 -235.06 306.5 C-234.84 302.48 -234.13 299.51 -232.56 295.81 C-232.19 293.48 -231.86 291.15 -231.56 288.81 C-231.24 287.48 -230.91 286.14 -230.56 284.81 C-230.22 283.31 -229.89 281.81 -229.56 280.31 C-229.08 278.13 -228.6 275.96 -228.04 273.8 C-227.54 271.72 -227.25 269.68 -227 267.56 C-226.86 266.33 -226.71 265.09 -226.56 263.81 C-225.9 263.81 -225.24 263.81 -224.56 263.81 C-224.59 263.06 -224.61 262.32 -224.63 261.55 C-224.65 260.56 -224.67 259.58 -224.69 258.56 C-224.71 257.59 -224.73 256.61 -224.76 255.61 C-224.56 252.72 -223.88 251.33 -222.56 248.81 C-222.15 246.29 -222.15 246.29 -222 243.69 C-221.66 239.01 -221.66 239.01 -220.56 236.81 C-220.29 234.77 -220.12 232.74 -219.94 230.69 C-219.56 228.81 -219.56 228.81 -217.56 226.81 C-217.1 224.15 -217.1 224.15 -216.94 221.19 C-216.86 220.18 -216.79 219.18 -216.71 218.15 C-216.66 217.38 -216.61 216.61 -216.56 215.81 C-215.9 215.81 -215.24 215.81 -214.56 215.81 C-214.47 214.71 -214.47 214.71 -214.38 213.58 C-214.25 212.12 -214.25 212.12 -214.12 210.62 C-214.04 209.66 -213.96 208.7 -213.88 207.71 C-213.59 205.02 -213.12 202.45 -212.56 199.81 C-212.42 198.68 -212.27 197.54 -212.12 196.38 C-211.59 192.98 -210.67 190.05 -209.56 186.81 C-209.19 184.82 -208.86 182.82 -208.56 180.81 C-208.4 179.84 -208.23 178.87 -208.06 177.88 C-207.52 174.53 -207.03 171.17 -206.56 167.81 C-205.9 167.81 -205.24 167.81 -204.56 167.81 C-204.07 161.38 -204.07 161.38 -203.56 154.81 C-202.9 154.81 -202.24 154.81 -201.56 154.81 C-201.89 153.82 -202.22 152.83 -202.56 151.81 C-202.04 149.21 -202.04 149.21 -201.19 146.19 C-199.81 141.03 -199.01 136.13 -198.56 130.81 C-197.9 130.81 -197.24 130.81 -196.56 130.81 C-196.6 129.82 -196.64 128.83 -196.69 127.81 C-196.69 124.28 -196 121.24 -195.07 117.85 C-194.56 115.81 -194.28 113.84 -194.06 111.75 C-193.58 107.92 -192.68 104.5 -191.56 100.81 C-190.99 98.19 -190.53 95.59 -190.12 92.94 C-189.37 88.77 -188.47 84.62 -186.56 80.81 C-186.36 78.98 -186.2 77.15 -186.06 75.31 C-185.67 70.03 -185.67 70.03 -184.56 67.81 C-183.81 64.83 -183.2 61.82 -182.56 58.81 C-182.28 57.54 -182.28 57.54 -182 56.25 C-181.38 52.79 -180.98 49.31 -180.56 45.81 C-179.9 45.81 -179.24 45.81 -178.56 45.81 C-178.6 44.8 -178.64 43.79 -178.69 42.75 C-178.56 38.72 -177.69 35.66 -176.56 31.81 C-176.37 30.32 -176.2 28.82 -176.06 27.31 C-175.68 23.3 -174.75 19.67 -173.56 15.81 C-173.4 14.9 -173.23 14 -173.06 13.06 C-172.56 10.81 -172.56 10.81 -170.56 7.81 C-171.06 6.82 -171.06 6.82 -171.56 5.81 C-163.01 5.77 -154.46 5.73 -145.9 5.71 C-141.93 5.7 -137.96 5.68 -133.99 5.66 C-130.16 5.64 -126.32 5.63 -122.49 5.62 C-121.03 5.62 -119.57 5.61 -118.1 5.6 C-116.06 5.59 -114.01 5.58 -111.96 5.59 C-110.8 5.58 -109.63 5.58 -108.43 5.57 C-105.56 5.81 -105.56 5.81 -102.56 7.81 C-102.72 8.52 -102.88 9.23 -103.04 9.96 C-103.57 12.85 -103.75 15.58 -103.84 18.52 C-103.88 19.58 -103.92 20.64 -103.96 21.73 C-104.03 23.97 -104.1 26.2 -104.17 28.44 C-104.21 29.49 -104.24 30.55 -104.28 31.64 C-104.31 32.61 -104.34 33.58 -104.37 34.58 C-104.56 36.81 -104.56 36.81 -105.56 37.81 C-105.71 39.23 -105.79 40.65 -105.84 42.07 C-105.88 42.95 -105.92 43.82 -105.96 44.72 C-105.99 45.64 -106.03 46.55 -106.06 47.5 C-106.48 58.39 -106.48 58.39 -107.56 63.81 C-106.9 63.81 -106.24 63.81 -105.56 63.81 C-104.37 62.11 -103.26 60.35 -102.19 58.56 C-99.94 54.81 -97.71 51.84 -94.56 48.81 C-93.02 46.49 -91.77 44.31 -90.56 41.81 C-89.9 41.81 -89.24 41.81 -88.56 41.81 C-88.18 40.95 -88.18 40.95 -87.8 40.07 C-84.49 34.03 -78.9 29.35 -72.56 26.81 C-72.56 25.82 -72.56 24.83 -72.56 23.81 C-70.91 23.81 -69.26 23.81 -67.56 23.81 C-67.34 23.19 -67.11 22.57 -66.88 21.94 C-65.18 19.2 -63.57 18.76 -60.56 17.81 C-60.56 17.15 -60.56 16.49 -60.56 15.81 C-59.72 15.56 -58.87 15.32 -58 15.06 C-55.31 14.09 -53.24 13.12 -50.81 11.69 C-47.56 9.81 -47.56 9.81 -45.56 9.81 C-45.23 9.15 -44.9 8.49 -44.56 7.81 C-41.6 6.01 -38.77 5.35 -35.38 4.75 C-32.17 4.39 -32.17 4.39 -29.56 2.81 C-27.94 2.6 -26.32 2.44 -24.69 2.31 C-21.71 2.07 -19.41 1.76 -16.56 0.81 C-10.95 -0.07 -5.66 -0.31 0 0 Z M-109.56 63.81 C-108.56 66.81 -108.56 66.81 -108.56 66.81 Z M-92.56 107.81 C-92.89 108.8 -93.22 109.79 -93.56 110.81 C-92.57 110.48 -91.58 110.15 -90.56 109.81 C-90.56 109.15 -90.56 108.49 -90.56 107.81 C-91.22 107.81 -91.88 107.81 -92.56 107.81 Z " fill="#F993D4" transform="translate(630.5625,485.1875)"/>
<path d="M0 0 C11.14 -0.05 22.29 -0.08 33.43 -0.1 C38.61 -0.11 43.78 -0.13 48.96 -0.15 C53.95 -0.17 58.94 -0.18 63.93 -0.19 C65.84 -0.19 67.74 -0.2 69.65 -0.21 C72.32 -0.23 74.98 -0.23 77.65 -0.23 C78.84 -0.24 78.84 -0.24 80.04 -0.25 C83.84 -0.23 86.78 -0.15 90 2 C89.72 4.25 89.42 6.5 89.12 8.75 C88.88 10.63 88.88 10.63 88.63 12.55 C88.08 15.56 87.39 17.36 86 20 C85.59 22.29 85.59 22.29 85.44 24.62 C85.1 28.81 85.1 28.81 84 31 C83.73 33.27 83.56 35.53 83.38 37.81 C83 40 83 40 81 43 C80.62 45.41 80.62 45.41 80.5 48 C80.28 51.67 80.11 52.83 78 56 C78 57.99 78 59.98 78.12 61.96 C77.97 64.41 77.09 65.81 76 68 C75.59 70.05 75.24 72.12 74.94 74.19 C74.1 79.9 74.1 79.9 73 81 C72.79 82.49 72.63 84 72.5 85.5 C72.11 89.89 72.11 89.89 71 91 C70.72 93.51 70.55 96.03 70.38 98.55 C70 101 70 101 68 104 C67.61 106.4 67.61 106.4 67.5 109.06 C67.02 115.38 66.33 121.71 63.94 127.62 C63.03 129.92 62.75 131.69 62.5 134.12 C62 138 62 138 60 141 C60 142.99 60 144.98 60.12 146.96 C59.98 149.4 59.1 150.84 58 153 C57.62 155.22 57.62 155.22 57.5 157.5 C57.33 159.99 57.16 161.69 56 163.93 C54.73 166.55 54.62 168.78 54.44 171.69 C54.1 176.9 54.1 176.9 53 178 C52.77 180 52.55 181.99 52.38 183.99 C52 186 52 186 50 189 C49.58 191.71 49.58 191.71 49.44 194.62 C49.1 199.9 49.1 199.9 48 201 C47.63 202.99 47.3 205 47 207 C46.11 212.89 46.11 212.89 45 214 C44.77 215.51 44.59 217.04 44.44 218.56 C44.31 219.8 44.31 219.8 44.18 221.07 C44.12 221.7 44.06 222.34 44 223 C43.34 223 42.68 223 42 223 C42.02 223.76 42.05 224.52 42.07 225.3 C42.09 226.29 42.11 227.29 42.12 228.31 C42.15 229.3 42.17 230.28 42.2 231.3 C42 234 42 234 40 237 C39.62 239.41 39.62 239.41 39.5 242 C39.28 245.67 39.11 246.83 37 250 C36.58 252.94 36.58 252.94 36.44 256.12 C36.1 261.9 36.1 261.9 35 263 C34.77 265.03 34.55 267.06 34.38 269.09 C34 271 34 271 32 273 C31.72 275.35 31.55 277.7 31.44 280.06 C31.1 286.9 31.1 286.9 30 288 C29.89 290.46 29.84 292.9 29.83 295.36 C29.83 296.1 29.83 296.84 29.82 297.61 C29.82 299.18 29.81 300.75 29.81 302.33 C29.81 304.73 29.79 307.12 29.78 309.52 C29.77 311.05 29.77 312.58 29.77 314.11 C29.76 315.18 29.76 315.18 29.75 316.28 C29.77 320.32 30.27 323.35 32 327 C32.12 327.64 32.25 328.28 32.38 328.94 C33.31 332.04 35.15 334.36 37 337 C37.52 337.95 38.03 338.9 38.56 339.88 C42.22 344.57 46.91 347.94 52 351 C52.99 351 53.98 351 55 351 C55 351.66 55 352.32 55 353 C61.14 354.55 67.05 355.42 73.38 355.69 C74.65 355.75 74.65 355.75 75.96 355.81 C82.17 356.04 88.35 355.98 94.56 355.69 C95.37 355.65 96.17 355.62 97 355.58 C100.77 355.36 102.79 355.14 106 353 C108.33 352.65 110.67 352.32 113 352 C116.46 350.9 118.62 349.76 121 347 C121.99 347.33 122.98 347.66 124 348 C124 347.34 124 346.68 124 346 C126.08 344.05 126.08 344.05 128.81 341.88 C129.71 341.15 130.6 340.43 131.52 339.68 C134 338 134 338 137 338 C137 337.01 137 336.02 137 335 C137.66 335 138.32 335 139 335 C139 334.34 139 333.68 139 333 C139.99 333 140.98 333 142 333 C142.15 331.86 142.15 331.86 142.31 330.69 C143.09 327.65 143.8 327.12 146 325 C147.43 322.71 148.7 320.37 150 318 C150.66 318 151.32 318 152 318 C152.15 316.92 152.15 316.92 152.31 315.81 C153.06 312.74 154.38 310.7 156 308 C156.34 306.33 156.68 304.67 157 303 C157.66 302.67 158.32 302.34 159 302 C159.66 299.47 159.66 299.47 160 297 C160.66 297 161.32 297 162 297 C161.67 296.01 161.34 295.02 161 294 C161.72 292.3 162.45 290.59 163.23 288.92 C164.39 286.02 164.69 283.09 165 280 C165.66 280 166.32 280 167 280 C166.67 279.01 166.34 278.02 166 277 C166.52 274.87 166.52 274.87 167.38 272.44 C168.82 267.97 169.47 263.8 169.79 259.13 C170.04 256.62 170.82 254.47 171.72 252.12 C173.93 246.11 174.65 240.38 175 234 C175.66 234 176.32 234 177 234 C177.06 233.18 177.12 232.36 177.18 231.52 C177.27 230.44 177.35 229.36 177.44 228.25 C177.52 227.18 177.6 226.12 177.68 225.02 C177.94 222.55 178.36 220.38 179 218 C179.14 216.89 179.29 215.77 179.44 214.62 C180 211 180 211 181 208.06 C182.21 204.35 182.6 200.88 183 197 C183.66 197 184.32 197 185 197 C184.81 196.27 184.61 195.55 184.41 194.8 C183.96 191.71 184.34 190.16 185.38 187.25 C186.95 182.46 187.59 178.02 188 173 C188.66 173 189.32 173 190 173 C189.67 172.01 189.34 171.02 189 170 C189.52 167.91 189.52 167.91 190.38 165.5 C191.9 160.78 192.41 156.38 192.76 151.46 C193.06 148.43 193.97 145.86 195 143 C196.05 138.45 196.88 133.88 197.5 129.25 C198 126 198 126 199.06 122.88 C200.14 120.08 200.14 120.08 200 117.31 C200 115 200 115 202 112 C202.38 109.66 202.38 109.66 202.5 107.12 C202.81 103.32 203.55 100.53 205 97 C205.46 94.01 205.75 91.01 206 88 C206.66 88 207.32 88 208 88 C207.67 87.01 207.34 86.02 207 85 C207.61 82.3 208.27 79.66 209 77 C209.97 72.7 210.48 68.38 211 64 C211.66 64 212.32 64 213 64 C212.94 62.51 212.94 62.51 212.88 61 C212.87 57.47 213.56 54.43 214.5 51.04 C215 49 215.28 47.03 215.5 44.94 C215.99 41.09 216.91 37.71 218 34 C219.03 29.4 219.9 24.8 220.5 20.12 C221 17 221 17 221.96 15.12 C223.13 12.73 223.63 10.55 224.12 7.94 C224.29 7.08 224.46 6.22 224.63 5.34 C225.08 2.9 225.08 2.9 225 0 C236.42 -0.02 247.84 -0.04 259.27 -0.05 C264.57 -0.06 269.87 -0.06 275.18 -0.08 C280.29 -0.09 285.41 -0.09 290.52 -0.09 C292.48 -0.1 294.43 -0.1 296.39 -0.11 C299.12 -0.11 301.85 -0.11 304.58 -0.11 C305.39 -0.12 306.21 -0.12 307.04 -0.12 C310.29 -0.12 312.89 -0.04 316 1 C316.25 8.62 316.25 8.62 314 12 C313.62 14.41 313.62 14.41 313.5 17 C313.28 20.67 313.11 21.83 311 25 C310.65 27.37 310.65 27.37 310.56 30 C309.5 44.5 309.5 44.5 306 48 C305.84 49.58 305.72 51.16 305.62 52.75 C304.24 69.76 304.24 69.76 301 73 C300.72 75.48 300.55 77.96 300.38 80.46 C299.99 83.04 299.19 84.7 298 87 C298 88.01 298 89.02 298 90.06 C298 93 298 93 296 96 C295.63 98.84 295.5 101.65 295.34 104.5 C295 107 295 107 293 109 C292.57 111.86 292.57 111.86 292.44 115.06 C292.1 120.9 292.1 120.9 291 122 C290.77 124.03 290.55 126.06 290.38 128.09 C290 130 290 130 288 132 C287.57 134.86 287.57 134.86 287.44 138.06 C287.1 143.9 287.1 143.9 286 145 C285.63 146.99 285.3 149 285 151 C284.11 156.89 284.11 156.89 283 158 C282.65 159.99 282.34 162 282.06 164 C279.82 179.18 279.82 179.18 278 181 C277.79 182.64 277.63 184.29 277.5 185.94 C277.11 190.78 277.11 190.78 276 193 C275.66 194.83 275.35 196.66 275.06 198.5 C273.74 206.61 273.74 206.61 273 210.62 C272.86 211.42 272.71 212.22 272.56 213.04 C272 215 272 215 270 217 C269.86 219.26 270 221.45 270.12 223.71 C269.98 226.31 269.18 227.71 268 230 C267.65 232.3 267.5 234.56 267.34 236.88 C267 239 267 239 265 242 C264.58 244.21 264.58 244.21 264.44 246.56 C264.1 250.81 264.1 250.81 263 253 C262.73 255.27 262.56 257.53 262.38 259.81 C262 262 262 262 260 265 C259.65 267.37 259.65 267.37 259.56 270 C258.5 284.5 258.5 284.5 255 288 C254.72 290.22 254.55 292.44 254.38 294.68 C253.98 297.15 253.16 298.8 252 301 C251.65 302.33 251.31 303.66 251 305 C250.28 307.02 249.5 309.01 248.72 311 C248.01 312.99 247.5 314.95 247 317 C245.32 322.48 243.34 327.76 241 333 C240.34 333 239.68 333 239 333 C238.87 334.25 238.87 334.25 238.74 335.52 C237.85 339.72 236.22 343 234.19 346.75 C233.84 347.42 233.5 348.09 233.15 348.79 C231.2 352.44 229.84 354.43 226 356 C225.65 358 225.31 360 225 362 C223.37 364.38 223.37 364.38 221 367 C219.85 368.31 218.71 369.62 217.56 370.94 C216.96 371.62 216.36 372.31 215.74 373.01 C211.42 377.63 211.42 377.63 208.14 382.94 C206.68 385.58 204.9 386.93 202.5 388.75 C201.71 389.36 200.91 389.98 200.09 390.61 C198 392 198 392 196 392 C195.67 392.99 195.34 393.98 195 395 C191.14 398.97 186.85 402.33 182 405 C180.75 405.79 179.5 406.58 178.25 407.38 C173.92 410.08 169.5 412.59 165 415 C163.7 415.71 163.7 415.71 162.38 416.43 C161.51 416.88 160.65 417.34 159.75 417.81 C158.96 418.23 158.17 418.65 157.36 419.08 C154.74 420.1 152.78 420.17 150 420 C150 420.66 150 421.32 150 422 C147.36 422.33 144.72 422.66 142 423 C142 423.66 142 424.32 142 425 C139.69 425 137.38 425 135 425 C135 425.66 135 426.32 135 427 C133.95 427.12 132.9 427.25 131.81 427.38 C128.18 427.81 128.18 427.81 125.69 429 C122.19 430.3 118.82 430.48 115.11 430.75 C113.02 430.78 113.02 430.78 112 432 C110.61 432.14 109.21 432.23 107.82 432.28 C106.97 432.32 106.13 432.36 105.26 432.39 C104.37 432.43 103.48 432.46 102.56 432.5 C100.81 432.57 99.06 432.64 97.32 432.72 C96.54 432.75 95.76 432.78 94.96 432.81 C92.92 432.89 92.92 432.89 91 434 C84.53 435.13 77.99 435.15 71.44 435.12 C70.54 435.13 69.65 435.13 68.73 435.14 C54.12 435.12 54.12 435.12 52 433 C49.16 432.79 46.34 432.62 43.5 432.5 C35.14 432.14 35.14 432.14 34 431 C32.51 430.63 31.01 430.31 29.5 430 C25.11 429.11 25.11 429.11 24 428 C22.82 427.9 21.65 427.79 20.44 427.69 C16.48 427.24 13.68 426.01 10.21 424.11 C6.79 422.39 3.16 421.29 -0.48 420.12 C-3.33 418.85 -4.88 417.26 -7 415 C-9.47 413.84 -9.47 413.84 -12 413 C-13.34 412.35 -14.68 411.69 -16 411 C-16 410.34 -16 409.68 -16 409 C-16.84 408.6 -16.84 408.6 -17.69 408.19 C-24.83 404.52 -24.83 404.52 -26 401 C-26.58 400.73 -27.16 400.46 -27.75 400.19 C-30.98 398.48 -32.82 395.84 -35 393 C-35.55 392.32 -36.09 391.64 -36.65 390.93 C-37.47 389.88 -37.47 389.88 -38.31 388.81 C-38.82 388.16 -39.34 387.51 -39.86 386.83 C-41 385 -41 385 -41 382 C-41.96 381.69 -41.96 381.69 -42.94 381.38 C-45 380 -45 380 -45.75 376.88 C-45.83 375.93 -45.91 374.98 -46 374 C-46.66 374 -47.32 374 -48 374 C-50.82 368.56 -53.21 363.15 -55.25 357.38 C-55.52 356.65 -55.79 355.93 -56.06 355.18 C-57.56 350.97 -58.31 347.53 -58 343 C-58.66 342.67 -59.32 342.34 -60 342 C-61.46 336.48 -61.6 330.68 -62 325 C-62.05 324.29 -62.1 323.58 -62.16 322.85 C-63.28 307.1 -63.43 291.34 -59.46 275.92 C-58.84 273.34 -58.63 270.74 -58.38 268.1 C-58 266 -58 266 -57.03 263.61 C-55.91 260.77 -55.4 258.14 -54.94 255.12 C-54.69 253.55 -54.69 253.55 -54.43 251.95 C-54.09 249.61 -53.78 247.28 -53.5 244.94 C-53 242 -53 242 -51 239 C-50.58 236.33 -50.58 236.33 -50.44 233.44 C-50.1 228.19 -50.1 228.19 -49 226 C-48.64 224.57 -48.31 223.13 -48 221.69 C-47.83 220.88 -47.65 220.07 -47.47 219.24 C-47.32 218.5 -47.16 217.76 -47 217 C-46.81 216.13 -46.63 215.27 -46.44 214.38 C-46.06 212.34 -45.77 210.3 -45.5 208.25 C-45 205 -45 205 -44 204 C-43.63 202.24 -43.3 200.46 -43 198.69 C-42.09 193.34 -42.09 193.34 -41.46 190.89 C-40.88 188.69 -40.88 188.69 -40.56 185.12 C-40.14 181.54 -39.23 178.4 -38 175 C-36.39 170.06 -35.72 165.48 -35.28 160.35 C-34.93 157.4 -33.97 154.8 -33 152 C-32.56 149.34 -32.28 146.69 -32 144 C-31.34 144 -30.68 144 -30 144 C-30.33 143.01 -30.66 142.02 -31 141 C-30.7 138.88 -30.7 138.88 -30.12 136.56 C-29.94 135.8 -29.76 135.04 -29.57 134.25 C-29.21 132.83 -28.84 131.4 -28.46 129.98 C-27.98 127.9 -27.68 125.87 -27.44 123.75 C-27.29 122.51 -27.15 121.27 -27 120 C-26.34 120 -25.68 120 -25 120 C-25 116.37 -25 112.74 -25 109 C-24.34 109 -23.68 109 -23 109 C-22.67 104.71 -22.34 100.42 -22 96 C-21.34 96 -20.68 96 -20 96 C-20.33 95.01 -20.66 94.02 -21 93 C-20.84 90.3 -20.4 87.68 -20 85 C-19.34 85 -18.68 85 -18 85 C-17.95 84.18 -17.9 83.36 -17.85 82.52 C-17.78 81.44 -17.7 80.36 -17.62 79.25 C-17.56 78.18 -17.49 77.12 -17.41 76.02 C-17.02 73.14 -16.35 71.51 -15 69 C-14.71 66.99 -14.43 64.97 -14.21 62.95 C-13.96 60.59 -13.48 58.32 -13 56 C-12.86 54.85 -12.71 53.69 -12.56 52.5 C-12 49 -12 49 -11 46.62 C-9.56 42.84 -9.33 39.01 -9 35 C-8.34 35 -7.68 35 -7 35 C-7.02 34.42 -7.05 33.84 -7.07 33.24 C-7.18 28.3 -6.66 24.69 -5 20 C-4.55 17.01 -4.25 14.01 -4 11 C-3.34 11 -2.68 11 -2 11 C-2.5 9.51 -2.5 9.51 -3 8 C-2.44 5.96 -2.44 5.96 -1.56 3.81 C-1.13 2.74 -1.13 2.74 -0.69 1.64 C-0.46 1.1 -0.24 0.56 0 0 Z " fill="#F993D4" transform="translate(70,391)"/>
<path d="M0 0 C1.12 0.01 1.12 0.01 2.25 0.01 C3.43 0.01 3.43 0.01 4.63 0 C7.23 -0.01 9.83 -0 12.43 0.01 C14.23 0 16.04 0 17.84 -0 C21.62 -0 25.41 0 29.19 0.01 C34.04 0.02 38.9 0.02 43.75 0 C47.47 -0 51.2 -0 54.93 0 C56.72 0 58.5 0 60.29 -0 C62.79 -0.01 65.3 0 67.8 0.01 C68.54 0.01 69.28 0 70.04 0 C73.71 0.03 76.61 0.1 79.66 2.27 C83.06 8.79 82.08 17.16 82.22 24.33 C82.25 25.41 82.28 26.5 82.31 27.62 C82.33 28.61 82.35 29.6 82.37 30.62 C82.66 33.34 83.41 34.87 84.66 37.27 C84.96 39.45 84.96 39.45 85.03 41.78 C85.07 42.62 85.1 43.46 85.14 44.33 C85.18 45.63 85.18 45.63 85.22 46.96 C85.28 48.69 85.34 50.42 85.41 52.16 C85.43 52.92 85.46 53.69 85.48 54.48 C85.47 56.29 85.47 56.29 86.66 57.27 C86.79 58.86 86.86 60.45 86.9 62.04 C86.95 63.5 86.95 63.5 87 64.98 C87.06 67.04 87.12 69.09 87.17 71.15 C87.21 72.12 87.24 73.1 87.28 74.1 C87.3 75 87.33 75.89 87.35 76.81 C87.67 79.4 88.48 80.97 89.66 83.27 C89.94 85.36 89.94 85.36 90 87.57 C90.03 88.38 90.06 89.2 90.09 90.03 C90.11 90.88 90.13 91.72 90.16 92.58 C90.31 98.55 91.01 103.5 92.66 109.27 C93 112.56 93.11 115.84 93.22 119.15 C93.28 120.85 93.34 122.56 93.41 124.26 C93.45 125.38 93.45 125.38 93.48 126.52 C93.47 128.3 93.47 128.3 94.66 129.27 C94.79 130.76 94.86 132.26 94.9 133.75 C94.93 134.67 94.97 135.59 95 136.53 C95.06 138.46 95.12 140.4 95.17 142.33 C95.21 143.25 95.24 144.17 95.28 145.13 C95.3 145.97 95.33 146.81 95.35 147.68 C95.57 150.37 95.57 150.37 96.66 153.18 C97.75 156.57 97.96 159.39 98.03 162.95 C98.07 164.19 98.1 165.43 98.14 166.7 C98.16 167.98 98.19 169.26 98.22 170.58 C98.28 173.14 98.34 175.7 98.41 178.26 C98.43 179.39 98.46 180.52 98.48 181.68 C98.37 184.2 98.37 184.2 99.66 185.27 C99.78 186.77 99.83 188.28 99.86 189.79 C99.88 190.75 99.9 191.71 99.92 192.7 C99.95 194.27 99.95 194.27 99.97 195.87 C99.99 196.93 100.01 198 100.03 199.09 C100.1 202.51 100.16 205.92 100.22 209.33 C100.26 211.64 100.3 213.95 100.35 216.26 C100.46 221.93 100.56 227.6 100.66 233.27 C100.94 232.63 101.23 231.99 101.53 231.33 C102.66 229.27 102.66 229.27 104.66 228.27 C104.8 227.22 104.94 226.17 105.09 225.08 C105.67 221.16 106.84 218.76 108.66 215.27 C109.42 212.95 110.04 210.64 110.66 208.27 C111.32 208.27 111.98 208.27 112.66 208.27 C112.66 205.96 112.66 203.65 112.66 201.27 C113.32 200.94 113.98 200.61 114.66 200.27 C114.84 198.69 114.84 198.69 115.03 197.08 C115.73 192.8 117.22 190.81 119.66 187.27 C120.37 184.95 121.03 182.62 121.66 180.27 C122.3 178.47 122.96 176.68 123.66 174.9 C123.99 174.04 124.32 173.19 124.66 172.31 C125.66 170.27 125.66 170.27 127.66 169.27 C128.01 167.27 128.34 165.27 128.66 163.27 C129.75 160.64 130.62 159.31 132.66 157.27 C133.49 155.22 134.18 153.15 134.87 151.05 C135.66 149.27 135.66 149.27 137.66 148.27 C138.39 145.96 139.06 143.62 139.66 141.27 C140.32 141.27 140.98 141.27 141.66 141.27 C141.66 140.28 141.66 139.29 141.66 138.27 C142.32 138.27 142.98 138.27 143.66 138.27 C143.33 137.28 143 136.29 142.66 135.27 C143.58 133.54 144.53 131.82 145.55 130.15 C146.86 127.93 147.83 125.61 148.8 123.22 C149.85 120.83 151.03 118.53 152.22 116.21 C154.04 112.62 155.41 109.1 156.66 105.27 C157.32 104.61 157.98 103.95 158.66 103.27 C160.78 100.5 160.78 100.5 161.16 97.71 C161.66 95.27 161.66 95.27 163.66 93.27 C163.99 92.28 164.32 91.29 164.66 90.27 C165.32 90.27 165.98 90.27 166.66 90.27 C166.66 88.29 166.66 86.31 166.66 84.27 C167.32 84.27 167.98 84.27 168.66 84.27 C168.94 83.2 169.23 82.13 169.53 81.02 C170.39 78.14 171.22 75.87 172.66 73.27 C173.03 72.53 173.4 71.79 173.78 71.02 C174.07 70.44 174.36 69.87 174.66 69.27 C175.32 69.27 175.98 69.27 176.66 69.27 C176.33 68.28 176 67.29 175.66 66.27 C176.61 64.91 177.62 63.58 178.66 62.27 C179.35 60.67 180 59.04 180.59 57.4 C182.17 53.27 184.18 49.94 186.66 46.27 C187.44 43.54 187.44 43.54 187.66 41.27 C188.32 41.27 188.98 41.27 189.66 41.27 C189.66 39.95 189.66 38.63 189.66 37.27 C190.32 36.94 190.98 36.61 191.66 36.27 C191.78 35.34 191.9 34.41 192.03 33.46 C192.77 29.69 194.01 28.91 196.66 26.27 C197.05 24.28 197.39 22.28 197.66 20.27 C198.32 19.61 198.98 18.95 199.66 18.27 C201.82 15.38 201.82 15.38 202.53 11.96 C203.97 7.23 206.17 3.76 209.66 0.27 C212.5 0.08 215.24 0.01 218.08 0.03 C219.39 0.03 219.39 0.03 220.72 0.02 C223.61 0.02 226.51 0.03 229.4 0.04 C231.4 0.04 233.41 0.04 235.41 0.04 C239.62 0.04 243.83 0.05 248.04 0.07 C253.43 0.08 258.83 0.09 264.23 0.09 C268.37 0.09 272.51 0.09 276.66 0.1 C278.65 0.1 280.64 0.1 282.63 0.1 C285.41 0.11 288.19 0.12 290.97 0.13 C291.8 0.13 292.62 0.12 293.47 0.12 C297.03 0.14 300.23 0.31 303.66 1.27 C304.34 2.96 304.34 2.96 304.66 5.27 C303.34 8.02 303.34 8.02 301.66 10.27 C301 10.27 300.34 10.27 299.66 10.27 C299.54 11.49 299.54 11.49 299.42 12.74 C298.45 17.23 296.54 20.77 294.34 24.77 C293.95 25.5 293.56 26.24 293.16 26.99 C291.37 30.31 289.53 33.53 287.42 36.65 C285.72 39.17 284.76 41.45 283.66 44.27 C282.98 45.49 282.29 46.7 281.59 47.9 C279.6 51.11 279.6 51.11 278.66 54.27 C278 54.27 277.34 54.27 276.66 54.27 C276.53 54.99 276.41 55.71 276.28 56.46 C275.66 59.23 274.77 61.67 273.66 64.27 C273 64.27 272.34 64.27 271.66 64.27 C271.57 65.22 271.49 66.17 271.41 67.15 C271.03 68.69 271.03 68.69 270.66 70.27 C269.34 70.97 268.01 71.64 266.66 72.27 C265.97 74.62 265.97 74.62 265.66 77.27 C265.02 78.95 264.36 80.62 263.66 82.27 C263 82.27 262.34 82.27 261.66 82.27 C261.57 83.12 261.49 83.96 261.41 84.83 C260.49 89.01 258.89 91.64 256.66 95.27 C256.33 95.93 256 96.59 255.66 97.27 C255 97.27 254.34 97.27 253.66 97.27 C253.55 98.14 253.45 99.01 253.34 99.91 C252.62 103.44 251.48 105.9 249.72 109.02 C249.19 109.96 248.67 110.91 248.13 111.88 C246.66 114.27 246.66 114.27 244.66 116.27 C244.37 116.99 244.08 117.71 243.78 118.46 C242.66 121.26 241.25 123.77 239.73 126.38 C237.01 131.17 234.59 136.11 232.66 141.27 C232 141.27 231.34 141.27 230.66 141.27 C230.59 141.93 230.53 142.59 230.47 143.27 C229.52 146.76 227.96 149.21 225.99 152.22 C222.54 157.53 218.99 163.02 217.66 169.27 C217 169.27 216.34 169.27 215.66 169.27 C215.33 170.92 215 172.57 214.66 174.27 C214 174.27 213.34 174.27 212.66 174.27 C212.55 175.14 212.45 176.01 212.34 176.91 C211.62 180.44 210.48 182.9 208.72 186.02 C207.93 187.44 207.93 187.44 207.13 188.88 C205.66 191.27 205.66 191.27 203.66 193.27 C202.98 194.93 202.31 196.6 201.66 198.27 C200.41 200.68 199.14 203.07 197.84 205.46 C194.1 212.4 190.52 219.41 187.09 226.51 C186.55 227.61 186.02 228.7 185.47 229.83 C184.98 230.85 184.49 231.86 183.99 232.9 C182.66 235.27 182.66 235.27 180.66 236.27 C179.97 237.93 179.31 239.6 178.66 241.27 C177.37 243.64 176.01 245.95 174.66 248.27 C173.17 251.14 171.83 254.06 170.53 257.02 C170.18 257.82 169.82 258.62 169.46 259.44 C169.19 260.05 168.93 260.65 168.66 261.27 C168 261.27 167.34 261.27 166.66 261.27 C166.61 262.08 166.57 262.88 166.53 263.71 C165.52 267.81 163.8 270.18 161.4 273.59 C157.97 278.86 155.39 284.62 152.66 290.27 C142.99 309.93 142.99 309.93 139.66 313.27 C139.37 313.99 139.08 314.71 138.78 315.46 C137.38 318.96 135.55 322.01 133.66 325.27 C133.3 325.97 132.95 326.67 132.59 327.4 C131.66 329.27 131.66 329.27 130.09 331.77 C128.8 334.01 128.12 335.75 127.66 338.27 C127 338.27 126.34 338.27 125.66 338.27 C125.61 339.1 125.57 339.92 125.53 340.77 C124.5 344.88 122.75 347.06 120.15 350.32 C118.25 352.81 116.95 355.43 115.66 358.27 C115.34 358.89 115.02 359.51 114.69 360.15 C113.6 362.38 112.72 364.64 111.84 366.96 C109 374.11 105.55 380.33 100.66 386.27 C100.33 387.26 100 388.25 99.66 389.27 C99 389.27 98.34 389.27 97.66 389.27 C97.57 390.22 97.49 391.17 97.41 392.15 C97.03 393.69 97.03 393.69 96.66 395.27 C95.34 395.97 94.01 396.64 92.66 397.27 C92.3 398.93 91.97 400.6 91.66 402.27 C90.37 403.97 89.03 405.64 87.66 407.27 C86.95 408.58 86.26 409.91 85.66 411.27 C85 411.27 84.34 411.27 83.66 411.27 C83.31 412.11 83.31 412.11 82.97 412.96 C81.28 415.93 79.19 417.99 76.66 420.27 C76 420.27 75.34 420.27 74.66 420.27 C74.61 420.97 74.57 421.67 74.53 422.4 C73.33 426.35 70.9 428.76 67.66 431.27 C67 431.27 66.34 431.27 65.66 431.27 C65.33 432.26 65 433.25 64.66 434.27 C64 434.27 63.34 434.27 62.66 434.27 C62.66 434.93 62.66 435.59 62.66 436.27 C61.24 437.25 59.82 438.22 58.37 439.13 C56.38 440.41 56.38 440.41 53.66 442.77 C50.76 445.18 47.82 447.23 44.66 449.27 C43.78 449.88 42.9 450.48 41.99 451.11 C38.19 453.57 34.29 455.72 30.28 457.83 C29.56 458.22 28.85 458.61 28.11 459 C18.32 464.19 8.38 467.13 -2.58 468.71 C-5.28 469.11 -5.28 469.11 -7.19 470.29 C-9.81 471.48 -11.73 471.52 -14.6 471.53 C-16.17 471.54 -16.17 471.54 -17.78 471.55 C-18.9 471.54 -20.03 471.54 -21.19 471.54 C-22.35 471.54 -23.51 471.54 -24.71 471.54 C-27.16 471.54 -29.62 471.54 -32.07 471.53 C-35.83 471.52 -39.59 471.53 -43.35 471.54 C-45.73 471.54 -48.12 471.54 -50.5 471.54 C-51.63 471.54 -52.75 471.54 -53.91 471.55 C-54.96 471.54 -56.01 471.54 -57.09 471.53 C-58.01 471.53 -58.93 471.53 -59.88 471.53 C-62.49 471.26 -64.07 470.54 -66.34 469.27 C-68.34 468.93 -68.34 468.93 -70.34 468.83 C-73.8 468.47 -75.86 467.86 -78.34 465.27 C-79.46 461.93 -79.47 459.41 -79.47 455.89 C-79.48 454.57 -79.48 453.25 -79.48 451.89 C-79.48 450.45 -79.48 449.02 -79.48 447.58 C-79.48 446.1 -79.48 444.63 -79.48 443.16 C-79.48 440.07 -79.48 436.99 -79.48 433.9 C-79.47 429.94 -79.47 425.98 -79.48 422.01 C-79.48 418.97 -79.48 415.93 -79.48 412.89 C-79.48 411.43 -79.48 409.97 -79.48 408.51 C-79.48 406.47 -79.48 404.43 -79.47 402.4 C-79.47 401.23 -79.47 400.07 -79.47 398.88 C-79.34 396.27 -79.34 396.27 -78.34 395.27 C-76.54 395.48 -74.74 395.7 -72.94 395.95 C-68.74 396.47 -64.52 396.71 -60.3 396.99 C-57.34 397.27 -57.34 397.27 -55.41 397.78 C-51.86 398.62 -48.29 398.46 -44.66 398.46 C-43.45 398.46 -43.45 398.46 -42.21 398.46 C-36.64 398.41 -31.74 397.73 -26.34 396.27 C-23.28 396.15 -23.28 396.15 -21.34 396.27 C-21.34 395.61 -21.34 394.95 -21.34 394.27 C-20.33 394.02 -19.32 393.78 -18.28 393.52 C-14.2 392.37 -10.96 390.47 -7.34 388.27 C-6.68 387.94 -6.02 387.61 -5.34 387.27 C-4.68 386.28 -4.02 385.29 -3.34 384.27 C-2.02 384.27 -0.7 384.27 0.66 384.27 C0.87 383.73 1.09 383.19 1.31 382.63 C3.12 379.45 5.57 377.06 8.16 374.52 C8.65 374.01 9.15 373.51 9.67 372.99 C13.4 369.27 13.4 369.27 15.66 369.27 C15.66 368.28 15.66 367.29 15.66 366.27 C16.65 366.27 17.64 366.27 18.66 366.27 C18.76 365.51 18.86 364.74 18.97 363.96 C19.74 360.93 20.51 360.41 22.66 358.27 C23.79 355.98 24.71 353.65 25.66 351.27 C26.65 351.27 27.64 351.27 28.66 351.27 C28.8 350.51 28.94 349.74 29.09 348.96 C29.79 345.63 30.22 343.71 32.66 341.27 C33.34 339.61 34 337.94 34.66 336.27 C35.32 335.28 35.98 334.29 36.66 333.27 C37.32 333.27 37.98 333.27 38.66 333.27 C38.16 331.79 38.16 331.79 37.66 330.27 C37.99 329.61 38.32 328.95 38.66 328.27 C38.59 325.42 38.47 322.61 38.28 319.77 C38.24 318.99 38.19 318.2 38.15 317.39 C37.97 313.2 37.97 313.2 36.66 309.27 C36.3 306.9 35.99 304.53 35.72 302.15 C35.63 301.44 35.55 300.73 35.46 300.01 C35.01 296.3 34.58 292.58 34.15 288.86 C34.07 288.16 33.98 287.45 33.9 286.72 C33.67 284.75 33.44 282.77 33.22 280.79 C32.77 277.3 32.77 277.3 31.59 274.25 C30.49 270.75 30.62 267.93 30.66 264.27 C30.3 260.73 29.79 257.22 29.28 253.71 C29.09 252.33 29.09 252.33 28.9 250.92 C28.21 246.14 27.22 241.85 25.66 237.27 C25.42 235.3 25.26 233.32 25.16 231.33 C24.44 220.38 22.75 209.62 20.76 198.84 C19.68 192.78 18.96 186.72 18.39 180.6 C18.03 176.99 17.53 173.52 16.69 169.99 C15.41 164.49 14.8 158.94 14.16 153.33 C13.38 146.63 12.47 140.05 11.08 133.45 C10.55 130.73 10.28 128.04 10.09 125.27 C9.89 121.63 9.89 121.63 8.66 118.27 C8.45 116.69 8.29 115.11 8.16 113.52 C7.83 109.73 7.28 106.03 6.66 102.27 C6.33 99.71 6.02 97.15 5.72 94.58 C5.18 90.01 4.53 85.5 3.68 80.97 C2.44 74.28 1.62 67.55 0.8 60.79 C0.11 55.28 -0.78 49.88 -1.92 44.44 C-2.42 41.89 -2.71 39.36 -2.91 36.77 C-3.15 33.39 -3.15 33.39 -4.34 30.27 C-4.72 27.81 -5.05 25.37 -5.34 22.9 C-5.47 21.83 -5.47 21.83 -5.6 20.74 C-5.86 18.58 -6.1 16.43 -6.34 14.27 C-6.55 12.46 -6.55 12.46 -6.77 10.61 C-6.87 9.55 -6.98 8.49 -7.09 7.4 C-7.19 6.45 -7.29 5.5 -7.39 4.53 C-7.29 -0.32 -4 0.03 0 0 Z M24.66 354.27 C25.66 356.27 25.66 356.27 25.66 356.27 Z M88.66 399.27 C88.33 400.26 88 401.25 87.66 402.27 C88.65 401.94 89.64 401.61 90.66 401.27 C90.66 400.61 90.66 399.95 90.66 399.27 C90 399.27 89.34 399.27 88.66 399.27 Z M70.66 422.27 C70.33 423.26 70 424.25 69.66 425.27 C70.65 424.94 71.64 424.61 72.66 424.27 C72.66 423.61 72.66 422.95 72.66 422.27 C72 422.27 71.34 422.27 70.66 422.27 Z " fill="#F993D4" transform="translate(956.3447723388672,490.72894287109375)"/>
<path d="M0 0 C29.04 0 58.08 0 88 0 C88 0.33 88 0.66 88 1 C58.96 1 29.92 1 0 1 C0 0.67 0 0.34 0 0 Z " fill="#000002" transform="translate(575,819)"/>
<path d="M0 0 C28.71 0 57.42 0 87 0 C87 0.33 87 0.66 87 1 C58.29 1 29.58 1 0 1 C0 0.67 0 0.34 0 0 Z " fill="#000002" transform="translate(758,819)"/>
<path d="M0 0 C28.71 0 57.42 0 87 0 C87 0.33 87 0.66 87 1 C58.29 1 29.58 1 0 1 C0 0.67 0 0.34 0 0 Z " fill="#000002" transform="translate(392,819)"/>
<path d="M0 0 C0.33 0 0.66 0 1 0 C1 5.61 1 11.22 1 17 C0.67 17 0.34 17 0 17 C0 11.39 0 5.78 0 0 Z " fill="#000002" transform="translate(891,572)"/>
<path d="M0 0 C0.33 0 0.66 0 1 0 C1 4.62 1 9.24 1 14 C0.67 14 0.34 14 0 14 C0 9.38 0 4.76 0 0 Z " fill="#000002" transform="translate(1039,510)"/>
<path d="M0 0 C0.33 0 0.66 0 1 0 C1 4.62 1 9.24 1 14 C0.67 14 0.34 14 0 14 C0 9.38 0 4.76 0 0 Z " fill="#000002" transform="translate(527,498)"/>
<path d="M0 0 C0.33 0 0.66 0 1 0 C1 4.29 1 8.58 1 13 C0.67 13 0.34 13 0 13 C0 8.71 0 4.42 0 0 Z " fill="#000002" transform="translate(1044,557)"/>
<path d="M0 0 C3.96 0 7.92 0 12 0 C12 0.33 12 0.66 12 1 C8.04 1 4.08 1 0 1 C0 0.67 0 0.34 0 0 Z " fill="#000002" transform="translate(163,824)"/>
<path d="M0 0 C3.3 0 6.6 0 10 0 C10 0.33 10 0.66 10 1 C6.7 1 3.4 1 0 1 C0 0.67 0 0.34 0 0 Z " fill="#000002" transform="translate(112,824)"/>
<path d="M0 0 C0.33 0 0.66 0 1 0 C1 3.3 1 6.6 1 10 C0.67 10 0.34 10 0 10 C0 6.7 0 3.4 0 0 Z " fill="#000002" transform="translate(1052,631)"/>
<path d="M0 0 C0.33 0 0.66 0 1 0 C1 2.64 1 5.28 1 8 C0.67 8 0.34 8 0 8 C0 5.36 0 2.72 0 0 Z " fill="#000002" transform="translate(888,610)"/>
<path d="M0 0 C0.33 0 0.66 0 1 0 C1 2.31 1 4.62 1 7 C0.67 7 0.34 7 0 7 C0 4.69 0 2.38 0 0 Z " fill="#000002" transform="translate(875,674)"/>
<path d="M0 0 C0.33 0 0.66 0 1 0 C1 2.31 1 4.62 1 7 C0.67 7 0.34 7 0 7 C0 4.69 0 2.38 0 0 Z " fill="#000002" transform="translate(102,664)"/>
<path d="M0 0 C0.33 0 0.66 0 1 0 C1 2.31 1 4.62 1 7 C0.67 7 0.34 7 0 7 C0 4.69 0 2.38 0 0 Z " fill="#000002" transform="translate(340,608)"/>
<path d="M0 0 C0.33 0 0.66 0 1 0 C1 2.31 1 4.62 1 7 C0.67 7 0.34 7 0 7 C0 4.69 0 2.38 0 0 Z " fill="#000002" transform="translate(1047,586)"/>
<path d="M0 0 C0.33 0 0.66 0 1 0 C1 2.31 1 4.62 1 7 C0.67 7 0.34 7 0 7 C0 4.69 0 2.38 0 0 Z " fill="#000002" transform="translate(358,523)"/>
<path d="M0 0 C0.33 0 0.66 0 1 0 C1 1.98 1 3.96 1 6 C0.67 6 0.34 6 0 6 C0 4.02 0 2.04 0 0 Z " fill="#000002" transform="translate(486,787)"/>
<path d="M0 0 C0.33 0 0.66 0 1 0 C1 1.98 1 3.96 1 6 C0.67 6 0.34 6 0 6 C0 4.02 0 2.04 0 0 Z " fill="#000002" transform="translate(852,785)"/>
<path d="M0 0 C0.33 0 0.66 0 1 0 C1 1.98 1 3.96 1 6 C0.67 6 0.34 6 0 6 C0 4.02 0 2.04 0 0 Z " fill="#000002" transform="translate(678,744)"/>
<path d="M0 0 C0.33 0 0.66 0 1 0 C1 1.98 1 3.96 1 6 C0.67 6 0.34 6 0 6 C0 4.02 0 2.04 0 0 Z " fill="#000002" transform="translate(865,723)"/>
<path d="M0 0 C0.33 0 0.66 0 1 0 C1 1.98 1 3.96 1 6 C0.67 6 0.34 6 0 6 C0 4.02 0 2.04 0 0 Z " fill="#000002" transform="translate(330,656)"/>
<path d="M0 0 C0.33 0 0.66 0 1 0 C1 1.98 1 3.96 1 6 C0.67 6 0.34 6 0 6 C0 4.02 0 2.04 0 0 Z " fill="#000002" transform="translate(120,580)"/>
<path d="M0 0 C0.33 0 0.66 0 1 0 C1 1.98 1 3.96 1 6 C0.67 6 0.34 6 0 6 C0 4.02 0 2.04 0 0 Z " fill="#000002" transform="translate(888,548)"/>
<path d="M0 0 C0.33 0 0.66 0 1 0 C1 1.98 1 3.96 1 6 C0.67 6 0.34 6 0 6 C0 4.02 0 2.04 0 0 Z " fill="#000002" transform="translate(1042,541)"/>
<path d="M0 0 C0.33 0 0.66 0 1 0 C1 1.98 1 3.96 1 6 C0.67 6 0.34 6 0 6 C0 4.02 0 2.04 0 0 Z " fill="#000002" transform="translate(363,500)"/>
<path d="M0 0 C0.33 0 0.66 0 1 0 C1 1.98 1 3.96 1 6 C0.67 6 0.34 6 0 6 C0 4.02 0 2.04 0 0 Z " fill="#000002" transform="translate(148,447)"/>
<path d="M0 0 C0.33 0 0.66 0 1 0 C1 1.98 1 3.96 1 6 C0.67 6 0.34 6 0 6 C0 4.02 0 2.04 0 0 Z " fill="#000002" transform="translate(376,439)"/>
<path d="M0 0 C0.33 0 0.66 0 1 0 C1 1.98 1 3.96 1 6 C0.67 6 0.34 6 0 6 C0 4.02 0 2.04 0 0 Z " fill="#000002" transform="translate(381,416)"/>
<path d="M0 0 C0.33 0 0.66 0 1 0 C1 1.65 1 3.3 1 5 C0.67 5 0.34 5 0 5 C0 3.35 0 1.7 0 0 Z " fill="#000002" transform="translate(847,810)"/>
<path d="M0 0 C0.33 0 0.66 0 1 0 C1 1.65 1 3.3 1 5 C0.67 5 0.34 5 0 5 C0 3.35 0 1.7 0 0 Z " fill="#000002" transform="translate(673,769)"/>
<path d="M0 0 C0.33 0 0.66 0 1 0 C1 1.65 1 3.3 1 5 C0.67 5 0.34 5 0 5 C0 3.35 0 1.7 0 0 Z " fill="#000002" transform="translate(683,721)"/>
<path d="M0 0 C0.33 0 0.66 0 1 0 C1 1.65 1 3.3 1 5 C0.67 5 0.34 5 0 5 C0 3.35 0 1.7 0 0 Z " fill="#000002" transform="translate(504,703)"/>
<path d="M0 0 C0.33 0 0.66 0 1 0 C1 1.65 1 3.3 1 5 C0.67 5 0.34 5 0 5 C0 3.35 0 1.7 0 0 Z " fill="#000002" transform="translate(870,700)"/>
<path d="M0 0 C0.33 0 0.66 0 1 0 C1 1.65 1 3.3 1 5 C0.67 5 0.34 5 0 5 C0 3.35 0 1.7 0 0 Z " fill="#000002" transform="translate(691,682)"/>
<path d="M0 0 C0.33 0 0.66 0 1 0 C1 1.65 1 3.3 1 5 C0.67 5 0.34 5 0 5 C0 3.35 0 1.7 0 0 Z " fill="#000002" transform="translate(878,661)"/>
<path d="M0 0 C0.33 0 0.66 0 1 0 C1 1.65 1 3.3 1 5 C0.67 5 0.34 5 0 5 C0 3.35 0 1.7 0 0 Z " fill="#000002" transform="translate(883,638)"/>
<path d="M0 0 C0.33 0 0.66 0 1 0 C1 1.65 1 3.3 1 5 C0.67 5 0.34 5 0 5 C0 3.35 0 1.7 0 0 Z " fill="#000002" transform="translate(335,633)"/>
<path d="M0 0 C0.33 0 0.66 0 1 0 C1 1.65 1 3.3 1 5 C0.67 5 0.34 5 0 5 C0 3.35 0 1.7 0 0 Z " fill="#000002" transform="translate(348,572)"/>
<path d="M0 0 C0.33 0 0.66 0 1 0 C1 1.65 1 3.3 1 5 C0.67 5 0.34 5 0 5 C0 3.35 0 1.7 0 0 Z " fill="#000002" transform="translate(125,557)"/>
<path d="M0 0 C0.33 0 0.66 0 1 0 C1 1.65 1 3.3 1 5 C0.67 5 0.34 5 0 5 C0 3.35 0 1.7 0 0 Z " fill="#000002" transform="translate(138,495)"/>
<path d="M0 0 C0.33 0 0.66 0 1 0 C1 1.65 1 3.3 1 5 C0.67 5 0.34 5 0 5 C0 3.35 0 1.7 0 0 Z " fill="#000002" transform="translate(366,487)"/>
<path d="M0 0 C0.33 0 0.66 0 1 0 C1 1.65 1 3.3 1 5 C0.67 5 0.34 5 0 5 C0 3.35 0 1.7 0 0 Z " fill="#000002" transform="translate(143,472)"/>
<path d="M0 0 C0.33 0 0.66 0 1 0 C1 1.65 1 3.3 1 5 C0.67 5 0.34 5 0 5 C0 3.35 0 1.7 0 0 Z " fill="#000002" transform="translate(371,464)"/>
<path d="M0 0 C4 1 4 1 4 1 Z " fill="#000002" transform="translate(951,960)"/>
<path d="M0 0 C4 1 4 1 4 1 Z " fill="#000002" transform="translate(886,960)"/>
<path d="M0 0 C4 1 4 1 4 1 Z " fill="#000002" transform="translate(90,819)"/>
<path d="M0 0 C1 4 1 4 1 4 Z " fill="#000002" transform="translate(481,813)"/>
<path d="M0 0 C1 4 1 4 1 4 Z " fill="#000002" transform="translate(489,774)"/>
<path d="M0 0 C1 4 1 4 1 4 Z " fill="#000002" transform="translate(494,751)"/>
<path d="M0 0 C1 4 1 4 1 4 Z " fill="#000002" transform="translate(860,749)"/>
<path d="M0 0 C1 4 1 4 1 4 Z " fill="#000002" transform="translate(509,680)"/>
<path d="M0 0 C1 4 1 4 1 4 Z " fill="#000002" transform="translate(325,679)"/>
<path d="M0 0 C1 4 1 4 1 4 Z " fill="#000002" transform="translate(110,628)"/>
<path d="M0 0 C1 4 1 4 1 4 Z " fill="#000002" transform="translate(115,605)"/>
<path d="M0 0 C1 4 1 4 1 4 Z " fill="#000002" transform="translate(353,549)"/>
<path d="M0 0 C1 4 1 4 1 4 Z " fill="#000002" transform="translate(151,434)"/>
<path d="M0 0 C1 4 1 4 1 4 Z " fill="#000002" transform="translate(156,411)"/>
<path d="M0 0 C1 4 1 4 1 4 Z " fill="#000002" transform="translate(384,403)"/>
<path d="" fill="#000002" transform="translate(0,0)"/>
<path d="" fill="#000002" transform="translate(0,0)"/>
<path d="" fill="#000002" transform="translate(0,0)"/>
<path d="" fill="#000002" transform="translate(0,0)"/>
<path d="" fill="#000002" transform="translate(0,0)"/>
<path d="" fill="#000002" transform="translate(0,0)"/>
<path d="" fill="#000002" transform="translate(0,0)"/>
<path d="" fill="#000002" transform="translate(0,0)"/>
<path d="" fill="#000002" transform="translate(0,0)"/>
<path d="" fill="#000002" transform="translate(0,0)"/>
<path d="" fill="#000002" transform="translate(0,0)"/>
<path d="" fill="#000002" transform="translate(0,0)"/>
<path d="M0 0 C2 1 2 1 2 1 Z " fill="#000002" transform="translate(964,957)"/>
<path d="" fill="#000002" transform="translate(0,0)"/>
<path d="M0 0 C2 1 2 1 2 1 Z " fill="#000002" transform="translate(198,819)"/>
<path d="M0 0 C2 1 2 1 2 1 Z " fill="#000002" transform="translate(214,814)"/>
<path d="M0 0 C2 1 2 1 2 1 Z " fill="#000002" transform="translate(61,806)"/>
<path d="" fill="#FA94D5" transform="translate(0,0)"/>
<path d="" fill="#000002" transform="translate(0,0)"/>
<path d="" fill="#FA94D5" transform="translate(0,0)"/>
<path d="" fill="#000002" transform="translate(0,0)"/>
<path d="" fill="#000002" transform="translate(0,0)"/>
<path d="" fill="#000002" transform="translate(0,0)"/>
<path d="" fill="#000002" transform="translate(0,0)"/>
<path d="" fill="#000002" transform="translate(0,0)"/>
<path d="" fill="#000002" transform="translate(0,0)"/>
<path d="" fill="#FA94D5" transform="translate(0,0)"/>
<path d="" fill="#000002" transform="translate(0,0)"/>
<path d="" fill="#000002" transform="translate(0,0)"/>
<path d="" fill="#000002" transform="translate(0,0)"/>
<path d="" fill="#000002" transform="translate(0,0)"/>
<path d="" fill="#FA94D5" transform="translate(0,0)"/>
<path d="" fill="#000002" transform="translate(0,0)"/>
<path d="" fill="#FA94D5" transform="translate(0,0)"/>
<path d="" fill="#000002" transform="translate(0,0)"/>
<path d="" fill="#FA94D5" transform="translate(0,0)"/>
<path d="" fill="#000002" transform="translate(0,0)"/>
<path d="" fill="#000002" transform="translate(0,0)"/>
<path d="" fill="#000002" transform="translate(0,0)"/>
<path d="" fill="#FA94D5" transform="translate(0,0)"/>
<path d="" fill="#000002" transform="translate(0,0)"/>
<path d="" fill="#FA94D5" transform="translate(0,0)"/>
<path d="" fill="#FA94D5" transform="translate(0,0)"/>
<path d="" fill="#000002" transform="translate(0,0)"/>
<path d="" fill="#000002" transform="translate(0,0)"/>
<path d="" fill="#000002" transform="translate(0,0)"/>
<path d="" fill="#000002" transform="translate(0,0)"/>
<path d="" fill="#000002" transform="translate(0,0)"/>
<path d="" fill="#000002" transform="translate(0,0)"/>
<path d="" fill="#FA94D5" transform="translate(0,0)"/>
<path d="" fill="#FA94D5" transform="translate(0,0)"/>
<path d="" fill="#FA94D5" transform="translate(0,0)"/>
<path d="" fill="#000002" transform="translate(0,0)"/>
<path d="" fill="#000002" transform="translate(0,0)"/>
<path d="" fill="#000002" transform="translate(0,0)"/>
<path d="" fill="#000002" transform="translate(0,0)"/>
<path d="" fill="#FA94D5" transform="translate(0,0)"/>
<path d="" fill="#000002" transform="translate(0,0)"/>
<path d="" fill="#000002" transform="translate(0,0)"/>
<path d="" fill="#000002" transform="translate(0,0)"/>
<path d="" fill="#000002" transform="translate(0,0)"/>
<path d="" fill="#000002" transform="translate(0,0)"/>
<path d="" fill="#000002" transform="translate(0,0)"/>
<path d="" fill="#000002" transform="translate(0,0)"/>
<path d="" fill="#000002" transform="translate(0,0)"/>
<path d="" fill="#000002" transform="translate(0,0)"/>
<path d="" fill="#000002" transform="translate(0,0)"/>
<path d="" fill="#000002" transform="translate(0,0)"/>
<path d="" fill="#FA94D5" transform="translate(0,0)"/>
<path d="" fill="#000002" transform="translate(0,0)"/>
<path d="" fill="#FA94D5" transform="translate(0,0)"/>
<path d="" fill="#000002" transform="translate(0,0)"/>
<path d="" fill="#000002" transform="translate(0,0)"/>
<path d="" fill="#000002" transform="translate(0,0)"/>
<path d="" fill="#FA94D5" transform="translate(0,0)"/>
<path d="" fill="#FA94D5" transform="translate(0,0)"/>
<path d="" fill="#FA94D5" transform="translate(0,0)"/>
<path d="" fill="#000002" transform="translate(0,0)"/>
<path d="" fill="#FA94D5" transform="translate(0,0)"/>
<path d="" fill="#FA94D5" transform="translate(0,0)"/>
<path d="" fill="#000002" transform="translate(0,0)"/>
<path d="" fill="#FA94D5" transform="translate(0,0)"/>
<path d="" fill="#000002" transform="translate(0,0)"/>
<path d="" fill="#FA94D5" transform="translate(0,0)"/>
<path d="" fill="#000002" transform="translate(0,0)"/>
<path d="" fill="#000002" transform="translate(0,0)"/>
<path d="" fill="#000002" transform="translate(0,0)"/>
<path d="" fill="#000002" transform="translate(0,0)"/>
<path d="" fill="#FA94D5" transform="translate(0,0)"/>
<path d="" fill="#FA94D5" transform="translate(0,0)"/>
<path d="" fill="#FA94D5" transform="translate(0,0)"/>
<path d="" fill="#000002" transform="translate(0,0)"/>
<path d="" fill="#000002" transform="translate(0,0)"/>
<path d="" fill="#000002" transform="translate(0,0)"/>
<path d="" fill="#FA94D5" transform="translate(0,0)"/>
<path d="" fill="#FA94D5" transform="translate(0,0)"/>
<path d="" fill="#000002" transform="translate(0,0)"/>
<path d="" fill="#000002" transform="translate(0,0)"/>
<path d="" fill="#000002" transform="translate(0,0)"/>
<path d="" fill="#000002" transform="translate(0,0)"/>
<path d="" fill="#000002" transform="translate(0,0)"/>
<path d="" fill="#000002" transform="translate(0,0)"/>
<path d="" fill="#FA94D5" transform="translate(0,0)"/>
<path d="" fill="#FA94D5" transform="translate(0,0)"/>
<path d="" fill="#000002" transform="translate(0,0)"/>
<path d="" fill="#000002" transform="translate(0,0)"/>
<path d="" fill="#FA94D5" transform="translate(0,0)"/>
<path d="" fill="#000002" transform="translate(0,0)"/>
<path d="" fill="#000002" transform="translate(0,0)"/>
<path d="" fill="#000002" transform="translate(0,0)"/>
<path d="" fill="#000002" transform="translate(0,0)"/>
<path d="" fill="#000002" transform="translate(0,0)"/>
<path d="" fill="#FA94D5" transform="translate(0,0)"/>
<path d="" fill="#000002" transform="translate(0,0)"/>
<path d="" fill="#FA94D5" transform="translate(0,0)"/>
<path d="" fill="#FA94D5" transform="translate(0,0)"/>
<path d="" fill="#000002" transform="translate(0,0)"/>
<path d="" fill="#000002" transform="translate(0,0)"/>
<path d="" fill="#000002" transform="translate(0,0)"/>
<path d="" fill="#000002" transform="translate(0,0)"/>
<path d="" fill="#000002" transform="translate(0,0)"/>
<path d="" fill="#000002" transform="translate(0,0)"/>
<path d="" fill="#000002" transform="translate(0,0)"/>
<path d="" fill="#FA94D5" transform="translate(0,0)"/>
<path d="" fill="#000002" transform="translate(0,0)"/>
<path d="" fill="#FA94D5" transform="translate(0,0)"/>
<path d="" fill="#000002" transform="translate(0,0)"/>
<path d="" fill="#FA94D5" transform="translate(0,0)"/>
<path d="" fill="#FA94D5" transform="translate(0,0)"/>
<path d="" fill="#000002" transform="translate(0,0)"/>
<path d="" fill="#000002" transform="translate(0,0)"/>
<path d="" fill="#FA94D5" transform="translate(0,0)"/>
<path d="" fill="#000002" transform="translate(0,0)"/>
<path d="" fill="#000002" transform="translate(0,0)"/>
<path d="" fill="#FA94D5" transform="translate(0,0)"/>
<path d="" fill="#000002" transform="translate(0,0)"/>
<path d="" fill="#000002" transform="translate(0,0)"/>
<path d="" fill="#000002" transform="translate(0,0)"/>
<path d="" fill="#FA94D5" transform="translate(0,0)"/>
<path d="" fill="#000002" transform="translate(0,0)"/>
<path d="" fill="#FA94D5" transform="translate(0,0)"/>
<path d="" fill="#000002" transform="translate(0,0)"/>
<path d="" fill="#000002" transform="translate(0,0)"/>
<path d="" fill="#000002" transform="translate(0,0)"/>
<path d="" fill="#000002" transform="translate(0,0)"/>
<path d="" fill="#FA94D5" transform="translate(0,0)"/>
<path d="" fill="#FA94D5" transform="translate(0,0)"/>
<path d="" fill="#000002" transform="translate(0,0)"/>
<path d="" fill="#000002" transform="translate(0,0)"/>
<path d="" fill="#FA94D5" transform="translate(0,0)"/>
<path d="" fill="#FA94D5" transform="translate(0,0)"/>
<path d="" fill="#FA94D5" transform="translate(0,0)"/>
<path d="" fill="#000002" transform="translate(0,0)"/>
<path d="" fill="#FA94D5" transform="translate(0,0)"/>
<path d="" fill="#FA94D5" transform="translate(0,0)"/>
<path d="" fill="#FA94D5" transform="translate(0,0)"/>
<path d="" fill="#FA94D5" transform="translate(0,0)"/>
<path d="" fill="#000002" transform="translate(0,0)"/>
<path d="" fill="#000002" transform="translate(0,0)"/>
<path d="" fill="#000002" transform="translate(0,0)"/>
</svg>
